G04*
G04 #@! TF.GenerationSoftware,Altium Limited,Altium Designer,24.4.1 (13)*
G04*
G04 Layer_Physical_Order=1*
G04 Layer_Color=255*
%FSLAX44Y44*%
%MOMM*%
G71*
G04*
G04 #@! TF.SameCoordinates,E702B004-23CB-4448-875A-07FC45505782*
G04*
G04*
G04 #@! TF.FilePolarity,Positive*
G04*
G01*
G75*
%ADD11C,0.2540*%
G04:AMPARAMS|DCode=16|XSize=1.0922mm|YSize=1.2954mm|CornerRadius=0.0055mm|HoleSize=0mm|Usage=FLASHONLY|Rotation=0.000|XOffset=0mm|YOffset=0mm|HoleType=Round|Shape=RoundedRectangle|*
%AMROUNDEDRECTD16*
21,1,1.0922,1.2845,0,0,0.0*
21,1,1.0813,1.2954,0,0,0.0*
1,1,0.0109,0.5406,-0.6422*
1,1,0.0109,-0.5406,-0.6422*
1,1,0.0109,-0.5406,0.6422*
1,1,0.0109,0.5406,0.6422*
%
%ADD16ROUNDEDRECTD16*%
G04:AMPARAMS|DCode=17|XSize=1.27mm|YSize=1.6002mm|CornerRadius=0.0064mm|HoleSize=0mm|Usage=FLASHONLY|Rotation=0.000|XOffset=0mm|YOffset=0mm|HoleType=Round|Shape=RoundedRectangle|*
%AMROUNDEDRECTD17*
21,1,1.2700,1.5875,0,0,0.0*
21,1,1.2573,1.6002,0,0,0.0*
1,1,0.0127,0.6287,-0.7938*
1,1,0.0127,-0.6287,-0.7938*
1,1,0.0127,-0.6287,0.7938*
1,1,0.0127,0.6287,0.7938*
%
%ADD17ROUNDEDRECTD17*%
%ADD18O,0.6096X1.8796*%
%ADD19C,2.0320*%
%ADD20C,0.6096*%
D11*
X153941Y191389D02*
X158750Y196198D01*
X153888Y191389D02*
X153941D01*
X152400Y189901D02*
X153888Y191389D01*
X152400Y177800D02*
Y189901D01*
X161591Y203708D02*
X162099Y203200D01*
X160238Y203708D02*
X161591D01*
X162099Y203200D02*
X177800D01*
X158750Y205196D02*
Y246162D01*
Y205196D02*
X160238Y203708D01*
X158750Y196198D02*
Y196850D01*
X152400Y114935D02*
Y121920D01*
Y114935D02*
X165100Y102235D01*
Y101600D02*
Y102235D01*
X157262Y152400D02*
X165100Y160238D01*
X63500Y152400D02*
X157262D01*
X63500Y146050D02*
X157262D01*
X177800Y121920D02*
Y139700D01*
Y158750D02*
Y177800D01*
X57150Y158750D02*
Y189012D01*
Y158750D02*
X63500Y152400D01*
X165100Y160238D02*
Y177800D01*
X57150Y189012D02*
X58638Y190500D01*
X77216D01*
X165100Y121920D02*
Y138212D01*
X57150Y139700D02*
X63500Y146050D01*
X157262D02*
X165100Y138212D01*
X57150Y90388D02*
Y139700D01*
X44450Y12700D02*
Y273050D01*
Y12700D02*
X50800Y6350D01*
X131862D01*
X49911Y278511D02*
X122809D01*
X44450Y273050D02*
X49911Y278511D01*
X58638Y88900D02*
X77216D01*
X57150Y90388D02*
X58638Y88900D01*
X222250Y165100D02*
X255016D01*
X209550Y177800D02*
X222250Y165100D01*
X203200Y177800D02*
X209550D01*
X144081Y104585D02*
X152400Y96266D01*
X143827Y104585D02*
X144081D01*
X139700Y108712D02*
X143827Y104585D01*
X152400Y95250D02*
Y96266D01*
X139700Y108712D02*
Y121920D01*
X152595Y70925D02*
Y95055D01*
X152400Y95250D02*
X152595Y95055D01*
Y70925D02*
X153670Y69850D01*
X107950Y84201D02*
Y114300D01*
X120650Y69850D02*
Y71501D01*
X107950Y84201D02*
X120650Y71501D01*
X129540Y95250D02*
X133350Y91440D01*
Y7838D02*
Y91440D01*
X131862Y6350D02*
X133350Y7838D01*
X122809Y278511D02*
X127000Y274320D01*
Y247650D02*
Y274320D01*
X88900Y266700D02*
X113030D01*
X77216Y255016D02*
X88900Y266700D01*
X113030Y233680D02*
X127000Y247650D01*
X113030Y203200D02*
Y233680D01*
X107950Y114300D02*
X115570Y121920D01*
X127000D01*
X77216Y114300D02*
X107950D01*
X152400Y25400D02*
X182880D01*
X119380Y23749D02*
Y25400D01*
X82550D02*
X119380D01*
X77216Y30734D02*
Y63500D01*
Y30734D02*
X82550Y25400D01*
X210820Y201549D02*
Y203200D01*
X203200Y193929D02*
X210820Y201549D01*
X203200Y177800D02*
Y193929D01*
X177800Y201549D02*
X186472Y192877D01*
X190500Y177800D02*
Y190500D01*
X177800Y201549D02*
Y203200D01*
X186472Y192877D02*
X188123D01*
X190500Y190500D01*
X160238Y247650D02*
X176312D01*
X158750Y246162D02*
X160238Y247650D01*
X176312D02*
X177800Y249138D01*
Y266700D01*
X203200Y107950D02*
Y117213D01*
X204843Y115570D02*
X253746D01*
X255016Y114300D01*
X203200Y117213D02*
Y121920D01*
Y117213D02*
X204843Y115570D01*
X214412Y101600D02*
X215900Y100112D01*
X209550Y101600D02*
X214412D01*
X215900Y69850D02*
Y100112D01*
X203200Y107950D02*
X209550Y101600D01*
X190500Y107950D02*
Y121920D01*
X184150Y101600D02*
X190500Y107950D01*
X182880Y69850D02*
X184150Y71120D01*
Y101600D01*
X182880Y25400D02*
Y69850D01*
X254000Y38100D02*
Y87884D01*
X255016Y88900D01*
X215900Y25400D02*
X241300D01*
X254000Y38100D01*
X285750Y90388D02*
Y254000D01*
X255016Y88900D02*
X284262D01*
X285750Y90388D01*
X120650Y177800D02*
X127000D01*
X113030Y185420D02*
X120650Y177800D01*
X113030Y185420D02*
Y203200D01*
X146050D02*
Y234950D01*
X139700Y195199D02*
X146050Y201549D01*
Y203200D01*
X139700Y177800D02*
Y195199D01*
X255016Y203200D02*
Y227584D01*
X247650Y234950D02*
X255016Y227584D01*
X168910Y234950D02*
X247650D01*
X273050Y266700D02*
X285750Y254000D01*
X210820Y266700D02*
X273050D01*
X146050D02*
X177800D01*
X77216Y215900D02*
Y255016D01*
D16*
X129540Y95250D02*
D03*
X152400D02*
D03*
X168910Y234950D02*
D03*
X146050D02*
D03*
D17*
X152400Y25400D02*
D03*
X119380D02*
D03*
X215900Y69850D02*
D03*
X182880D02*
D03*
Y25400D02*
D03*
X215900D02*
D03*
X210820Y203200D02*
D03*
X177800D02*
D03*
X113030D02*
D03*
X146050D02*
D03*
X177800Y266700D02*
D03*
X210820D02*
D03*
X146050D02*
D03*
X113030D02*
D03*
X120650Y69850D02*
D03*
X153670D02*
D03*
D18*
X203200Y121920D02*
D03*
X190500D02*
D03*
X177800D02*
D03*
X165100D02*
D03*
X152400D02*
D03*
X139700D02*
D03*
X127000D02*
D03*
Y177800D02*
D03*
X139700D02*
D03*
X152400D02*
D03*
X165100D02*
D03*
X177800D02*
D03*
X190500D02*
D03*
X203200D02*
D03*
D19*
X255016Y88900D02*
D03*
X77216Y63500D02*
D03*
X255016Y114300D02*
D03*
X77216Y88900D02*
D03*
X255016Y139700D02*
D03*
X77216Y114300D02*
D03*
X255016Y165100D02*
D03*
X77216Y190500D02*
D03*
X255016D02*
D03*
X77216Y215900D02*
D03*
D20*
X158750Y196850D02*
D03*
X165100Y101600D02*
D03*
X177800Y139700D02*
D03*
Y158750D02*
D03*
M02*
