G04*
G04 #@! TF.GenerationSoftware,Altium Limited,Altium Designer,24.4.1 (13)*
G04*
G04 Layer_Color=8388736*
%FSLAX44Y44*%
%MOMM*%
G71*
G04*
G04 #@! TF.SameCoordinates,E702B004-23CB-4448-875A-07FC45505782*
G04*
G04*
G04 #@! TF.FilePolarity,Negative*
G04*
G01*
G75*
G04:AMPARAMS|DCode=12|XSize=1.2192mm|YSize=1.4224mm|CornerRadius=0.069mm|HoleSize=0mm|Usage=FLASHONLY|Rotation=0.000|XOffset=0mm|YOffset=0mm|HoleType=Round|Shape=RoundedRectangle|*
%AMROUNDEDRECTD12*
21,1,1.2192,1.2845,0,0,0.0*
21,1,1.0813,1.4224,0,0,0.0*
1,1,0.1379,0.5406,-0.6422*
1,1,0.1379,-0.5406,-0.6422*
1,1,0.1379,-0.5406,0.6422*
1,1,0.1379,0.5406,0.6422*
%
%ADD12ROUNDEDRECTD12*%
G04:AMPARAMS|DCode=13|XSize=1.397mm|YSize=1.7272mm|CornerRadius=0.0699mm|HoleSize=0mm|Usage=FLASHONLY|Rotation=0.000|XOffset=0mm|YOffset=0mm|HoleType=Round|Shape=RoundedRectangle|*
%AMROUNDEDRECTD13*
21,1,1.3970,1.5875,0,0,0.0*
21,1,1.2573,1.7272,0,0,0.0*
1,1,0.1397,0.6287,-0.7938*
1,1,0.1397,-0.6287,-0.7938*
1,1,0.1397,-0.6287,0.7938*
1,1,0.1397,0.6287,0.7938*
%
%ADD13ROUNDEDRECTD13*%
%ADD14O,0.7112X1.9812*%
%ADD15C,2.1336*%
D12*
X129540Y95250D02*
D03*
X152400D02*
D03*
X168910Y234950D02*
D03*
X146050D02*
D03*
D13*
X152400Y25400D02*
D03*
X119380D02*
D03*
X215900Y69850D02*
D03*
X182880D02*
D03*
Y25400D02*
D03*
X215900D02*
D03*
X210820Y203200D02*
D03*
X177800D02*
D03*
X113030D02*
D03*
X146050D02*
D03*
X177800Y266700D02*
D03*
X210820D02*
D03*
X146050D02*
D03*
X113030D02*
D03*
X120650Y69850D02*
D03*
X153670D02*
D03*
D14*
X203200Y121920D02*
D03*
X190500D02*
D03*
X177800D02*
D03*
X165100D02*
D03*
X152400D02*
D03*
X139700D02*
D03*
X127000D02*
D03*
Y177800D02*
D03*
X139700D02*
D03*
X152400D02*
D03*
X165100D02*
D03*
X177800D02*
D03*
X190500D02*
D03*
X203200D02*
D03*
D15*
X255016Y88900D02*
D03*
X77216Y63500D02*
D03*
X255016Y114300D02*
D03*
X77216Y88900D02*
D03*
X255016Y139700D02*
D03*
X77216Y114300D02*
D03*
X255016Y165100D02*
D03*
X77216Y190500D02*
D03*
X255016D02*
D03*
X77216Y215900D02*
D03*
M02*
