G04*
G04 #@! TF.GenerationSoftware,Altium Limited,Altium Designer,24.4.1 (13)*
G04*
G04 Layer_Physical_Order=2*
G04 Layer_Color=16711680*
%FSLAX44Y44*%
%MOMM*%
G71*
G04*
G04 #@! TF.SameCoordinates,E702B004-23CB-4448-875A-07FC45505782*
G04*
G04*
G04 #@! TF.FilePolarity,Positive*
G04*
G01*
G75*
%ADD19C,2.0320*%
%ADD20C,0.6096*%
G36*
X330200Y0D02*
X0D01*
Y304800D01*
X330200D01*
Y0D01*
D02*
G37*
%LPC*%
G36*
X77216Y228710D02*
X73901Y228273D01*
X70811Y226993D01*
X68158Y224958D01*
X66123Y222305D01*
X64843Y219215D01*
X64406Y215900D01*
X64843Y212585D01*
X66123Y209495D01*
X68158Y206842D01*
X70811Y204807D01*
X71371Y204575D01*
Y201825D01*
X70811Y201593D01*
X68158Y199558D01*
X66123Y196905D01*
X64843Y193815D01*
X64406Y190500D01*
X64843Y187185D01*
X66123Y184095D01*
X68158Y181442D01*
X70811Y179407D01*
X73901Y178127D01*
X77216Y177690D01*
X80531Y178127D01*
X83621Y179407D01*
X86274Y181442D01*
X88309Y184095D01*
X89589Y187185D01*
X90026Y190500D01*
X89589Y193815D01*
X88309Y196905D01*
X86274Y199558D01*
X83621Y201593D01*
X83061Y201825D01*
Y204575D01*
X83621Y204807D01*
X86274Y206842D01*
X88309Y209495D01*
X89589Y212585D01*
X90026Y215900D01*
X89589Y219215D01*
X88309Y222305D01*
X86274Y224958D01*
X83621Y226993D01*
X80531Y228273D01*
X77216Y228710D01*
D02*
G37*
G36*
X228600Y185405D02*
X226632Y185146D01*
X224797Y184386D01*
X223222Y183178D01*
X222014Y181602D01*
X221254Y179768D01*
X220995Y177800D01*
X221254Y175832D01*
X222014Y173997D01*
X223222Y172422D01*
X224797Y171214D01*
X226632Y170454D01*
X228600Y170195D01*
X230568Y170454D01*
X232402Y171214D01*
X233978Y172422D01*
X235186Y173997D01*
X235946Y175832D01*
X236205Y177800D01*
X235946Y179768D01*
X235186Y181602D01*
X233978Y183178D01*
X232402Y184386D01*
X230568Y185146D01*
X228600Y185405D01*
D02*
G37*
G36*
X101600D02*
X99632Y185146D01*
X97797Y184386D01*
X96222Y183178D01*
X95014Y181602D01*
X94254Y179768D01*
X93995Y177800D01*
X94254Y175832D01*
X95014Y173997D01*
X96222Y172422D01*
X97797Y171214D01*
X99632Y170454D01*
X101600Y170195D01*
X103568Y170454D01*
X105402Y171214D01*
X106978Y172422D01*
X108186Y173997D01*
X108946Y175832D01*
X109205Y177800D01*
X108946Y179768D01*
X108186Y181602D01*
X106978Y183178D01*
X105402Y184386D01*
X103568Y185146D01*
X101600Y185405D01*
D02*
G37*
G36*
X255016Y203310D02*
X251701Y202873D01*
X248611Y201593D01*
X245958Y199558D01*
X243923Y196905D01*
X242643Y193815D01*
X242206Y190500D01*
X242643Y187185D01*
X243923Y184095D01*
X245958Y181442D01*
X248611Y179407D01*
X249171Y179175D01*
Y176425D01*
X248611Y176193D01*
X245958Y174158D01*
X243923Y171505D01*
X242643Y168415D01*
X242206Y165100D01*
X242643Y161785D01*
X243923Y158695D01*
X245958Y156042D01*
X248611Y154007D01*
X249171Y153775D01*
Y151025D01*
X248611Y150793D01*
X246975Y149537D01*
X255016Y141496D01*
X263057Y149537D01*
X261421Y150793D01*
X260861Y151025D01*
Y153775D01*
X261421Y154007D01*
X264074Y156042D01*
X266109Y158695D01*
X267389Y161785D01*
X267826Y165100D01*
X267389Y168415D01*
X266109Y171505D01*
X264074Y174158D01*
X261421Y176193D01*
X260861Y176425D01*
Y179175D01*
X261421Y179407D01*
X264074Y181442D01*
X266109Y184095D01*
X267389Y187185D01*
X267826Y190500D01*
X267389Y193815D01*
X266109Y196905D01*
X264074Y199558D01*
X261421Y201593D01*
X258331Y202873D01*
X255016Y203310D01*
D02*
G37*
G36*
X264853Y147741D02*
X256812Y139700D01*
X264853Y131658D01*
X266109Y133295D01*
X267389Y136385D01*
X267826Y139700D01*
X267389Y143015D01*
X266109Y146105D01*
X264853Y147741D01*
D02*
G37*
G36*
X245179Y147741D02*
X243923Y146105D01*
X242643Y143015D01*
X242206Y139700D01*
X242643Y136385D01*
X243923Y133295D01*
X245179Y131658D01*
X253220Y139700D01*
X245179Y147741D01*
D02*
G37*
G36*
X255016Y137904D02*
X246975Y129862D01*
X248611Y128607D01*
X249171Y128375D01*
Y125625D01*
X248611Y125393D01*
X245958Y123358D01*
X243923Y120705D01*
X242643Y117615D01*
X242206Y114300D01*
X242643Y110985D01*
X243923Y107895D01*
X245958Y105242D01*
X248611Y103207D01*
X249171Y102975D01*
Y100225D01*
X248611Y99993D01*
X245958Y97958D01*
X243923Y95305D01*
X242643Y92215D01*
X242206Y88900D01*
X242643Y85585D01*
X243923Y82495D01*
X245958Y79842D01*
X248611Y77807D01*
X251701Y76527D01*
X255016Y76090D01*
X258331Y76527D01*
X261421Y77807D01*
X264074Y79842D01*
X266109Y82495D01*
X267389Y85585D01*
X267826Y88900D01*
X267389Y92215D01*
X266109Y95305D01*
X264074Y97958D01*
X261421Y99993D01*
X260861Y100225D01*
Y102975D01*
X261421Y103207D01*
X264074Y105242D01*
X266109Y107895D01*
X267389Y110985D01*
X267826Y114300D01*
X267389Y117615D01*
X266109Y120705D01*
X264074Y123358D01*
X261421Y125393D01*
X260861Y125625D01*
Y128375D01*
X261421Y128607D01*
X263057Y129862D01*
X255016Y137904D01*
D02*
G37*
G36*
X77216Y127110D02*
X73901Y126673D01*
X70811Y125393D01*
X68158Y123358D01*
X66123Y120705D01*
X64843Y117615D01*
X64406Y114300D01*
X64843Y110985D01*
X66123Y107895D01*
X68158Y105242D01*
X70811Y103207D01*
X71371Y102975D01*
Y100225D01*
X70811Y99993D01*
X68158Y97958D01*
X66123Y95305D01*
X64843Y92215D01*
X64406Y88900D01*
X64843Y85585D01*
X66123Y82495D01*
X68158Y79842D01*
X70811Y77807D01*
X71371Y77575D01*
Y74825D01*
X70811Y74593D01*
X68158Y72558D01*
X66123Y69905D01*
X64843Y66815D01*
X64406Y63500D01*
X64843Y60185D01*
X66123Y57095D01*
X68158Y54442D01*
X70811Y52407D01*
X73901Y51127D01*
X77216Y50690D01*
X80531Y51127D01*
X83621Y52407D01*
X86274Y54442D01*
X88309Y57095D01*
X89589Y60185D01*
X90026Y63500D01*
X89589Y66815D01*
X88309Y69905D01*
X86274Y72558D01*
X83621Y74593D01*
X83061Y74825D01*
Y77575D01*
X83621Y77807D01*
X86274Y79842D01*
X88309Y82495D01*
X89589Y85585D01*
X90026Y88900D01*
X89589Y92215D01*
X88309Y95305D01*
X86274Y97958D01*
X83621Y99993D01*
X83061Y100225D01*
Y102975D01*
X83621Y103207D01*
X86274Y105242D01*
X88309Y107895D01*
X89589Y110985D01*
X90026Y114300D01*
X89589Y117615D01*
X88309Y120705D01*
X86274Y123358D01*
X83621Y125393D01*
X80531Y126673D01*
X77216Y127110D01*
D02*
G37*
%LPD*%
D19*
X255016Y88900D02*
D03*
X77216Y63500D02*
D03*
X255016Y114300D02*
D03*
X77216Y88900D02*
D03*
X255016Y139700D02*
D03*
X77216Y114300D02*
D03*
X255016Y165100D02*
D03*
X77216Y190500D02*
D03*
X255016D02*
D03*
X77216Y215900D02*
D03*
D20*
X158750Y196850D02*
D03*
X165100Y101600D02*
D03*
X177800Y139700D02*
D03*
Y158750D02*
D03*
M02*
