G04*
G04 #@! TF.GenerationSoftware,Altium Limited,Altium Designer,24.4.1 (13)*
G04*
G04 Layer_Physical_Order=1*
G04 Layer_Color=255*
%FSLAX44Y44*%
%MOMM*%
G71*
G04*
G04 #@! TF.SameCoordinates,2922DF7C-8C4A-4011-8C8A-4044ECCBD14D*
G04*
G04*
G04 #@! TF.FilePolarity,Positive*
G04*
G01*
G75*
%ADD11C,0.2540*%
G04:AMPARAMS|DCode=17|XSize=1.27mm|YSize=1.6002mm|CornerRadius=0.0064mm|HoleSize=0mm|Usage=FLASHONLY|Rotation=270.000|XOffset=0mm|YOffset=0mm|HoleType=Round|Shape=RoundedRectangle|*
%AMROUNDEDRECTD17*
21,1,1.2700,1.5875,0,0,270.0*
21,1,1.2573,1.6002,0,0,270.0*
1,1,0.0127,-0.7938,-0.6287*
1,1,0.0127,-0.7938,0.6287*
1,1,0.0127,0.7938,0.6287*
1,1,0.0127,0.7938,-0.6287*
%
%ADD17ROUNDEDRECTD17*%
G04:AMPARAMS|DCode=18|XSize=1.0922mm|YSize=1.2954mm|CornerRadius=0.0055mm|HoleSize=0mm|Usage=FLASHONLY|Rotation=270.000|XOffset=0mm|YOffset=0mm|HoleType=Round|Shape=RoundedRectangle|*
%AMROUNDEDRECTD18*
21,1,1.0922,1.2845,0,0,270.0*
21,1,1.0813,1.2954,0,0,270.0*
1,1,0.0109,-0.6422,-0.5406*
1,1,0.0109,-0.6422,0.5406*
1,1,0.0109,0.6422,0.5406*
1,1,0.0109,0.6422,-0.5406*
%
%ADD18ROUNDEDRECTD18*%
G04:AMPARAMS|DCode=19|XSize=1.27mm|YSize=1.6002mm|CornerRadius=0.0064mm|HoleSize=0mm|Usage=FLASHONLY|Rotation=0.000|XOffset=0mm|YOffset=0mm|HoleType=Round|Shape=RoundedRectangle|*
%AMROUNDEDRECTD19*
21,1,1.2700,1.5875,0,0,0.0*
21,1,1.2573,1.6002,0,0,0.0*
1,1,0.0127,0.6287,-0.7938*
1,1,0.0127,-0.6287,-0.7938*
1,1,0.0127,-0.6287,0.7938*
1,1,0.0127,0.6287,0.7938*
%
%ADD19ROUNDEDRECTD19*%
%ADD20O,0.6096X1.8796*%
%ADD21C,2.0320*%
%ADD22C,0.6096*%
D11*
X370840D01*
X0Y370840D02*
X370840D01*
Y0D02*
Y370840D01*
X0Y0D02*
Y370840D01*
X182880Y147320D02*
Y162560D01*
Y218440D02*
Y236220D01*
X208280Y198120D02*
Y218440D01*
Y162560D02*
Y182880D01*
X209242D01*
X195580Y93980D02*
X200660Y88900D01*
Y25400D02*
Y88900D01*
X171668Y93980D02*
X195580D01*
X200660Y133731D02*
X220300Y153371D01*
Y161880D01*
X200660Y132080D02*
Y133731D01*
X220300Y161880D02*
X220980Y162560D01*
X200660Y109220D02*
Y132080D01*
X157480Y161663D02*
Y162560D01*
Y156210D02*
Y161663D01*
X152400Y151130D02*
X157480Y156210D01*
X152400Y139700D02*
Y151130D01*
X237045Y112585D02*
X272605D01*
X274320Y114300D01*
X233680Y109220D02*
X237045Y112585D01*
X254000Y85874D02*
Y96520D01*
X254127Y70993D02*
X266700Y58420D01*
X254000Y85874D02*
X254127Y85747D01*
Y70993D02*
Y85747D01*
X266700Y58420D02*
X299720D01*
X235776Y129985D02*
X253556D01*
X254000Y129540D01*
X233680Y132080D02*
X235776Y129985D01*
X233680Y161663D02*
Y162560D01*
Y132080D02*
Y161663D01*
X200660Y107569D02*
X215900Y92329D01*
X200660Y107569D02*
Y109220D01*
X215900Y78740D02*
Y92329D01*
Y78740D02*
X243840D01*
X215900Y55880D02*
X243840D01*
X244856D02*
X257556Y43180D01*
X243840Y55880D02*
X244856D01*
X257556Y43180D02*
X342900D01*
X347980Y48260D01*
Y82332D01*
X299720Y83820D02*
X346492D01*
X347980Y82332D01*
X275971Y81280D02*
X299720Y105029D01*
Y109220D01*
X274320Y81280D02*
X275971D01*
X274320Y114300D02*
Y129540D01*
X279400Y134620D01*
X299720D01*
X233680Y161663D02*
X235323Y160020D01*
X299720D01*
X233680Y218440D02*
X246380D01*
X255190Y209630D01*
X298530D01*
X299720Y210820D01*
X236220Y266700D02*
X254000D01*
X231140Y271780D02*
X236220Y266700D01*
X256604Y264097D02*
X269303D01*
X254000Y266700D02*
X256604Y264097D01*
X269303D02*
X274320Y259080D01*
Y243840D02*
Y259080D01*
X281940Y236220D02*
X299720D01*
X274320Y243840D02*
X281940Y236220D01*
X274320Y292100D02*
X275808Y290612D01*
X284480Y276860D02*
Y290612D01*
X275808D02*
X284480D01*
Y276860D02*
X299720Y261620D01*
X251460Y281940D02*
Y289560D01*
X261620Y299720D01*
X263108Y312420D02*
X299720D01*
X261620Y310932D02*
X263108Y312420D01*
X261620Y299720D02*
Y310932D01*
X299720Y287020D02*
X343952D01*
X345440Y288508D01*
Y322580D01*
X340360Y327660D02*
X345440Y322580D01*
X243840Y327660D02*
X340360D01*
X231140Y248920D02*
X251460D01*
X233680Y218440D02*
Y225752D01*
X231140Y228292D02*
Y248920D01*
Y228292D02*
X233680Y225752D01*
X198120Y247269D02*
Y248920D01*
Y247269D02*
X220980Y224409D01*
Y218440D02*
Y224409D01*
X198120Y248920D02*
Y271780D01*
Y273431D02*
X215900Y291211D01*
Y304800D01*
X198120Y271780D02*
Y273431D01*
X215900Y304800D02*
X243840D01*
X215900Y327660D02*
X243840D01*
X154813Y82931D02*
Y83947D01*
X152400Y86360D02*
X154813Y83947D01*
X152400Y86360D02*
Y106680D01*
X159004Y78740D02*
X160020D01*
X154813Y82931D02*
X159004Y78740D01*
X144780Y57368D02*
Y73660D01*
X146268Y55880D02*
X160020D01*
X144780Y57368D02*
X146268Y55880D01*
X136271Y82169D02*
Y83820D01*
Y82169D02*
X144780Y73660D01*
X129540Y88900D02*
X131191D01*
X136271Y83820D01*
X160020Y78740D02*
X187960D01*
X160020Y55880D02*
X187960D01*
X170180Y95468D02*
Y162560D01*
Y95468D02*
X171668Y93980D01*
X194310Y19050D02*
X200660Y25400D01*
X48478Y19050D02*
X194310D01*
X43180Y24348D02*
X48478Y19050D01*
X43180Y24348D02*
Y82332D01*
X44668Y83820D02*
X96520D01*
X43180Y82332D02*
X44668Y83820D01*
X118328Y88900D02*
X129540D01*
X116840Y87412D02*
X118328Y88900D01*
X116840Y78740D02*
Y87412D01*
X96520Y58420D02*
X116840Y78740D01*
X129540Y40640D02*
Y55880D01*
X121920Y33020D02*
X129540Y40640D01*
X96520Y33020D02*
X121920D01*
X149860Y109220D02*
X152400Y106680D01*
X96520Y109220D02*
X149860D01*
X155837Y160020D02*
X157480Y161663D01*
X96520Y160020D02*
X155837D01*
X144539Y218440D02*
X157480D01*
X96520Y210820D02*
X97710Y209630D01*
X135729D01*
X144539Y218440D01*
X43180Y180340D02*
X48260Y185420D01*
X43180Y139700D02*
Y180340D01*
X195580Y162560D02*
Y180340D01*
X48260Y185420D02*
X190500D01*
X195580Y180340D01*
X43180Y139700D02*
X48260Y134620D01*
X96520D01*
X195580Y203200D02*
Y218440D01*
X189230Y196850D02*
X195580Y203200D01*
X45938Y196850D02*
X189230D01*
X43180Y199608D02*
X45938Y196850D01*
X43180Y199608D02*
Y234732D01*
X44668Y236220D01*
X96520D01*
X170180Y218440D02*
Y280452D01*
X174208Y284480D02*
X193040D01*
X170180Y280452D02*
X174208Y284480D01*
X193040D02*
X203200Y294640D01*
Y347980D01*
X198120Y353060D02*
X203200Y347980D01*
X40640Y350520D02*
X43180Y353060D01*
X198120D01*
X40640Y288508D02*
Y350520D01*
X42128Y287020D02*
X96520D01*
X40640Y288508D02*
X42128Y287020D01*
X119380Y261620D02*
X129540Y271780D01*
X96520Y261620D02*
X119380D01*
X129540Y271780D02*
X157480D01*
X159508Y273808D01*
Y304288D01*
X144780Y322580D02*
X149860Y327660D01*
X144780Y307340D02*
Y322580D01*
X157480Y218440D02*
Y238760D01*
X159508Y304288D02*
X160020Y304800D01*
X187960D01*
X160020Y327660D02*
X187960D01*
X149860D02*
X160020D01*
X129540Y292100D02*
X131191D01*
X136271Y297180D01*
Y298831D01*
X144780Y307340D01*
X96520Y312420D02*
X116840Y292100D01*
X129540D01*
X127889Y325120D02*
X129540D01*
X96520Y337820D02*
X115189D01*
X127889Y325120D01*
D17*
X157480Y238760D02*
D03*
Y271780D02*
D03*
X129540Y292100D02*
D03*
Y325120D02*
D03*
X254000Y129540D02*
D03*
Y96520D02*
D03*
X274320Y81280D02*
D03*
Y114300D02*
D03*
X251460Y248920D02*
D03*
Y281940D02*
D03*
X274320Y292100D02*
D03*
Y259080D02*
D03*
X129540Y88900D02*
D03*
Y55880D02*
D03*
X152400Y139700D02*
D03*
Y106680D02*
D03*
D18*
X160020Y327660D02*
D03*
Y304800D02*
D03*
X187960Y327660D02*
D03*
Y304800D02*
D03*
X160020Y55880D02*
D03*
Y78740D02*
D03*
X187960Y55880D02*
D03*
Y78740D02*
D03*
X215900D02*
D03*
Y55880D02*
D03*
X243840Y78740D02*
D03*
Y55880D02*
D03*
Y304800D02*
D03*
Y327660D02*
D03*
X215900Y304800D02*
D03*
Y327660D02*
D03*
D19*
X233680Y132080D02*
D03*
X200660D02*
D03*
Y109220D02*
D03*
X233680D02*
D03*
X231140Y248920D02*
D03*
X198120D02*
D03*
Y271780D02*
D03*
X231140D02*
D03*
D20*
X233680Y162560D02*
D03*
X220980D02*
D03*
X208280D02*
D03*
X195580D02*
D03*
X182880D02*
D03*
X170180D02*
D03*
X157480D02*
D03*
Y218440D02*
D03*
X170180D02*
D03*
X182880D02*
D03*
X195580D02*
D03*
X208280D02*
D03*
X220980D02*
D03*
X233680D02*
D03*
D21*
X96520Y33020D02*
D03*
X299720Y58420D02*
D03*
X96520D02*
D03*
X299720Y83820D02*
D03*
X96520D02*
D03*
X299720Y109220D02*
D03*
X96520D02*
D03*
X299720Y134620D02*
D03*
X96520D02*
D03*
X299720Y160020D02*
D03*
X96520D02*
D03*
X299720Y185420D02*
D03*
X96520Y210820D02*
D03*
X299720D02*
D03*
X96520Y236220D02*
D03*
X299720D02*
D03*
X96520Y261620D02*
D03*
X299720D02*
D03*
X96520Y287020D02*
D03*
X299720D02*
D03*
X96520Y312420D02*
D03*
X299720D02*
D03*
X96520Y337820D02*
D03*
D22*
X182880Y147320D02*
D03*
Y236220D02*
D03*
X208280Y198120D02*
D03*
Y182880D02*
D03*
M02*
