M48
;Layer_Color=9474304
;FILE_FORMAT=4:3
METRIC
;TYPE=PLATED
T01F00S00C0.305
T02F00S00C0.991
;TYPE=NON_PLATED
T03F00S00C1.000
%
T01
X0018288Y0014732
X0020828Y0018288
Y0019812
X0018288Y0023622
T02
X0009652Y0003302
Y0005842
Y0008382
Y0010922
Y0013462
Y0016002
Y0021082
Y0023622
Y0026162
Y0028702
Y0031242
Y0033782
X0029972Y0031242
Y0028702
Y0026162
Y0023622
Y0021082
Y0018542
Y0016002
Y0013462
Y0010922
Y0008382
Y0005842
T03
X0013208Y0021844
X0025908
M30
